<svg width="512px" height="512px" viewBox="-32 0 512 512" version="1.1" xmlns="http://www.w3.org/2000/svg">
  <path fill="#fff" d="M156.125,415.92c-2.671,7.529 -4.125,15.635 -4.125,24.08c0,39.765 32.236,72 72,72c39.764,0 72,-32.235 72,-72c0,-8.445 -1.454,-16.551 -4.125,-24.08c-26.311,-1.026 -50.113,-11.827 -67.875,-28.873c-17.762,17.046 -41.564,27.846 -67.875,28.873Zm-76.125,-103.92c0,-8.445 1.454,-16.551 4.125,-24.08c26.311,-1.027 50.113,-11.827 67.875,-28.873c12.145,11.655 27.114,20.391 43.778,25.078c-2.462,8.872 -3.778,18.22 -3.778,27.875c0,17.858 4.501,34.664 12.43,49.347c-13.131,13.946 -31.764,22.653 -52.43,22.653c-39.765,0 -72,-32.235 -72,-72Zm280,-20c1.727,0 3.444,-0.042 5.15,-0.125c1.855,6.387 2.85,13.14 2.85,20.125c0,39.765 -32.236,72 -72,72c-39.764,0 -72,-32.235 -72,-72c0,-8.445 1.454,-16.551 4.125,-24.08c23.309,-0.91 44.648,-9.49 61.564,-23.288c18.513,16.995 43.2,27.368 70.311,27.368Zm-272,-180c18.097,0 34.634,6.677 47.283,17.701c-9.694,15.805 -15.283,34.399 -15.283,54.299c0,19.9 5.589,38.495 15.283,54.3c-12.649,11.024 -29.186,17.7 -47.283,17.7c-39.765,0 -72,-32.235 -72,-72c0,-39.764 32.235,-72 72,-72Zm224.717,126.3c9.694,-15.805 15.283,-34.4 15.283,-54.3c0,-19.9 -5.589,-38.494 -15.283,-54.299c12.649,-11.024 29.186,-17.701 47.283,-17.701c39.765,0 72,32.236 72,72c0,39.765 -32.235,72 -72,72c-18.097,0 -34.634,-6.676 -47.283,-17.7Zm-160.717,-54.3c0,-36.685 27.436,-66.962 62.909,-71.431c0.975,-8.356 3.682,-28.481 8.122,-38.471c5.689,-12.8 13.369,-23.704 23.04,-32.711c9.671,-9.008 21.096,-16.593 34.276,-22.756c13.179,-6.163 27.164,-10.761 41.955,-13.795c14.791,-3.035 30.341,-4.646 46.649,-4.836l0,28.444c-22.945,0.38 -43.615,3.509 -62.009,9.387c-18.394,5.879 -33.896,15.55 -46.506,29.013c-10.591,11.307 -17.336,38.731 -19.225,47.226c31.453,7.715 54.789,36.097 54.789,69.93c0,39.765 -32.236,72 -72,72c-39.764,0 -72,-32.235 -72,-72Zm-146,-173.191c5.12,22.187 12.468,39.68 22.044,52.48c9.577,12.8 21.097,21.475 34.56,26.027c13.464,4.551 29.156,7.253 47.076,8.106c17.92,0.854 37.689,0.522 59.307,-0.995c11.567,-0.569 20.385,-0.948 26.453,-1.138c-10.05,-83.627 -73.197,-111.787 -189.44,-84.48Z"></path>
</svg>
